# xmcd CD database file
#
# Track frame offsets:
#	150
#	9902
#	29349
#	50073
#	70253
#	78631
#	92934
#	112559
#	125324
#	147214
#	169358
#	201506
#	221249
#	252437
#	267124
#	297803
#	319085
#
# Disc length: 4602 seconds
#
# Revision: 2
# Processed by: cddbd v1.5.1PL2 Copyright (c) Steve Scherf et al.
# Submitted via: CDex 1.51
#
DISCID=fd11f811
DTITLE=Tete Montoliu - Jazz En España - Disc 1
DYEAR=1973
DGENRE=Jazz
TTITLE0=Blues For Line (Tete Montoliu)
TTITLE1=Sugerencias (Tete Montoliu)
TTITLE2=Imagination (J.Van Heusen)
TTITLE3=Apartamento 512 (Tete Montoliu)
TTITLE4=When I Fall In Love (Victor Young)
TTITLE5=Solar (Miles Davis)
TTITLE6=Lover Man (Ram Ramirez)
TTITLE7=One More Thing, One More Time (Tete Montoliu)
TTITLE8=A Nithingale Sang In Berkeley Square (M. Sherwin)
TTITLE9=Yellow Dolphin Street (Tete Montoliu)
TTITLE10=Where Are You? (Mac Hugh/Adamson)
TTITLE11=Waltz For Monika (Bill Evans)
TTITLE12=If You Could See Me Now (Tadd Dameron)
TTITLE13=What Is This Thing Called Love?/hot House (Cole Porter - T. Dameron)
TTITLE14=Sophisticate Lady (Duke Ellington)
TTITLE15=Saps (J.M. Serrat)
TTITLE16=I Want To Talk About You (Billy Eckstine)
EXTD=YEAR: 1973
EXTT0=
EXTT1=
EXTT2=
EXTT3=
EXTT4=
EXTT5=
EXTT6=
EXTT7=
EXTT8=
EXTT9=
EXTT10=
EXTT11=
EXTT12=
EXTT13=
EXTT14=
EXTT15=
EXTT16=
PLAYORDER=
